HIERARCHY
ROOT HipCenter
{
    OFFSET 0.0 0.0 -0.0
    CHANNELS 6 Xposition Yposition Zposition Zrotation Xrotation Yrotation
    JOINT Spine
    {
        OFFSET 0.0 11.587485313415527 0.0
        CHANNELS 3 Zrotation Xrotation Yrotation
        JOINT ShoulderCenter
        {
            OFFSET 0.0 33.28940963745117 0.0
            CHANNELS 3 Zrotation Xrotation Yrotation
            JOINT LeftShoulder
            {
                OFFSET 17.853328704833984 0.0 0.0
                CHANNELS 3 Zrotation Xrotation Yrotation
                JOINT LeftElbow
                {
                    OFFSET 30.745092391967773 0.0 0.0
                    CHANNELS 3 Zrotation Xrotation Yrotation
                    JOINT LeftWrist
                    {
                        OFFSET 31.183013916015625 0.0 0.0
                        CHANNELS 3 Zrotation Xrotation Yrotation
                        JOINT LeftHand
                        {
                            OFFSET 3.49552845954895 0.0 0.0
                            CHANNELS 3 Zrotation Xrotation Yrotation
                            End Site
                            {
                                OFFSET 1.3982114791870117 0.0 0.0
                            }
                        }
                    }
                }
            }
            JOINT RightShoulder
            {
                OFFSET -17.853328704833984 0.0 0.0
                CHANNELS 3 Zrotation Xrotation Yrotation
                JOINT RightElbow
                {
                    OFFSET -30.745092391967773 0.0 0.0
                    CHANNELS 3 Zrotation Xrotation Yrotation
                    JOINT RightWrist
                    {
                        OFFSET -31.183013916015625 0.0 0.0
                        CHANNELS 3 Zrotation Xrotation Yrotation
                        JOINT RightHand
                        {
                            OFFSET -3.49552845954895 0.0 0.0
                            CHANNELS 3 Zrotation Xrotation Yrotation
                            End Site
                            {
                                OFFSET -1.3982114791870117 0.0 0.0
                            }
                        }
                    }
                }
            }
            End Site
            {
                OFFSET 0.0 13.315763473510742 0.0
            }
        }
    }
    JOINT LeftHip
    {
        OFFSET 13.445955276489258 0.0 0.0
        CHANNELS 3 Zrotation Xrotation Yrotation
        JOINT LeftKnee
        {
            OFFSET 0.0 -42.909881591796875 0.0
            CHANNELS 3 Zrotation Xrotation Yrotation
            JOINT LeftAnkle
            {
                OFFSET 0.0 -45.15047836303711 0.0
                CHANNELS 3 Zrotation Xrotation Yrotation
                JOINT LeftFoot
                {
                    OFFSET 0.0 -12.531600952148438 0.0
                    CHANNELS 3 Zrotation Xrotation Yrotation
                    End Site
                    {
                        OFFSET 0.0 0.0 5.012639999389648
                    }
                }
            }
        }
    }
    JOINT RightHip
    {
        OFFSET -13.445955276489258 0.0 0.0
        CHANNELS 3 Zrotation Xrotation Yrotation
        JOINT RightKnee
        {
            OFFSET 0.0 -42.909881591796875 0.0
            CHANNELS 3 Zrotation Xrotation Yrotation
            JOINT RightAnkle
            {
                OFFSET 0.0 -45.15047836303711 0.0
                CHANNELS 3 Zrotation Xrotation Yrotation
                JOINT RightFoot
                {
                    OFFSET 0.0 -12.531600952148438 0.0
                    CHANNELS 3 Zrotation Xrotation Yrotation
                    End Site
                    {
                        OFFSET 0.0 0.0 5.012639999389648
                    }
                }
            }
        }
    }
}
MOTION
Frames: 8
Frame Time: 0.03333333333333333
39.5 -6.099999904632568 7.699999809265137 -1.1168175817247366e-07 -44.30130278238985 -177.32753507645833 -3.254564482711025 13.62880385538617 1.2865863110829843 1.852161790887676e-07 1.7765436004913052e-06 -4.34797035021057 121.4377008726422 -26.042698699083907 -160.93474360086142 -4.653518327167114e-06 2.586939218843472e-06 79.05301846880762 179.99999428799342 -81.31084538920754 -93.52840465405706 1.9310840053969444e-32 6.361109362927033e-15 -3.478731682850721e-16 -119.14820101583916 -31.5295212209413 155.4609040281502 3.003129825791256e-06 3.242488129061986e-06 -78.43186546798604 -1.7110246337786167e-06 -42.65420141241363 -83.43214795793928 3.1805546814635176e-15 3.1805546814635176e-15 -4.770832022195277e-15 26.91970925605065 -43.254632196071995 53.943329175161125 20.968175790777103 27.77905316919781 -92.85989453481577 103.15724126586045 -25.9733744765391 173.46825429257873 -6.361109362927033e-15 4.413906298050159e-31 -7.95138670365879e-15 -27.793116141333993 -43.73133711826024 -63.83538000471407 -32.766027700863695 24.091982340514228 120.48325085825371 -98.49056628475327 -3.2670611025797376 -178.88007297446012 2.648343778830095e-31 -6.361109362927035e-15 4.770832022195277e-15
39.599998474121094 -5.699999809265137 7.599999904632568 -0.6740522701421496 -43.26231421755757 -178.8919570400398 -4.355945020664412 13.850501322201374 1.3284558126773756 1.314059159850685e-07 -6.627243967501562e-06 -3.1354658454901534 122.11553706079819 -26.44872906899649 -160.15435478522642 -3.243856530063842e-07 7.754934649174911e-07 77.69929132093168 -179.9999987605514 -78.3940511956406 -94.11918255555426 -3.1805546814635168e-15 -7.724336021587778e-32 2.782985346280577e-15 -120.16616096284012 -32.145735158528225 154.4509840124087 4.21424139312633e-06 2.0994476660599937e-06 -76.84136107960633 -1.648578324741546e-07 -47.56255500400963 -85.24963905841621 0.0 0.0 0.0 25.994579679318427 -40.79133874248691 51.23408325915731 19.128452266208992 26.695791474002405 -91.98809313222472 103.6246524860705 -26.016682223746486 174.1786967703924 0.0 0.0 3.1805546814635168e-15 -25.566411519443577 -42.75650742545368 -55.80848306512096 -30.06923646470162 25.42823825155462 112.04192907981242 -98.52660827180605 -6.8820263385014195 -177.68702337189163 0.0 0.0 0.0
39.70000076293945 -5.400000095367432 7.500000476837158 2.503345902995484e-08 -42.90474974370166 -178.1923815521869 -4.170631620172774 13.358729710773112 1.4178287155413196 -8.062724925736056e-08 -1.4641425837950462e-06 -3.378280931185041 122.3586710939795 -26.35981869375996 -159.53022675799815 4.65487551984531e-06 -2.374185872434901e-06 75.16791654301312 179.99997108096812 -81.79827039598116 -94.73130370356844 2.1517793202994523e-31 6.361109362927033e-15 -3.87630101803366e-15 -120.69777103091607 -32.81526812501397 153.51735659358215 -2.6650780819226392e-06 -2.2408338474063207e-06 -74.85944641432503 -5.229286267140897e-06 -48.15798889565075 -83.2320931048721 0.0 0.0 1.5902773407317584e-15 25.144143897270393 -40.12562662910737 46.469890077349575 17.433416872302093 26.354184099308718 -86.62084150468331 102.6935626009323 -27.45036492697298 173.58814996208443 0.0 0.0 4.770832022195275e-15 -24.68631397550924 -41.87731672867645 -54.14377266504959 -28.72258924857303 25.304295143538162 109.71626789832666 -98.37108274334278 -7.1203073179483205 -177.65306808746203 0.0 0.0 0.0
39.70000076293945 -5.200000286102295 7.299999713897705 5.8817439374728263e-08 -41.83963686468845 -178.7560136864994 -4.298933883359347 13.378749873444084 1.4539491919042384 -5.665715175354333e-08 2.8284640121282188e-06 -3.0073143449299353 122.02002864855449 -26.742933847410388 -159.33958927356096 2.0755350770960175e-06 -1.1937406620768183e-07 72.96896378439799 179.99999488785383 -82.09994899804636 -92.63073311053128 3.1805546814635168e-15 -1.6552148617688094e-31 -5.9635400277440935e-15 -121.10038865713912 -33.481317858675425 152.60731314634836 1.83192860172889e-06 3.7861095774468e-07 -72.79866254200704 -1.978402566590358e-06 -48.84719349168842 -78.24277784925961 4.4139062980501586e-32 -3.1805546814635164e-15 1.5902773407317582e-15 24.85108846697657 -38.17805376400261 43.16907253193169 15.710765555468823 26.37973204458619 -84.49598246358651 102.43346966801039 -26.763798285744162 173.5694292237496 -8.827812596100317e-32 -6.3611093629270335e-15 -1.5902773407317584e-15 -23.83810896444298 -40.28673516420719 -52.168406029895195 -27.23985766443176 25.039415865054593 108.76103989017068 -97.89423959941094 -7.586412055523922 -177.4903594506623 6.3611093629270335e-15 -6.3611093629270335e-15 4.770832022195275e-15
39.70000076293945 -4.900000095367432 7.100000381469727 -2.2312327314847043e-08 -41.13926790240666 -178.8603815528086 -4.322265428328985 13.45020751206339 1.7194420949166065 4.5319352877177887e-07 2.337823660531582e-06 -3.128392051948435 122.07471162132568 -27.153172562923846 -158.79545928129778 -1.6780326591117356e-06 -9.913996090868513e-07 71.20136029356584 -179.9999687703903 -81.83732885671299 -92.62868310135212 3.1805546814635176e-15 -5.517382872562698e-33 -1.9878466759146985e-16 -120.96121538259732 -33.70406926303258 152.40399982306448 4.2996984342490825e-06 3.1644901776495385e-07 -71.33335962291699 3.2895417193809533e-06 -46.676671762373715 -79.1218421361726 3.1805546814635164e-15 -6.361109362927033e-15 1.7655625192200634e-31 24.004747550755848 -36.69802405161121 35.147248267064924 11.750556331168493 26.944359027998804 -76.60221081105617 102.52179081292931 -26.141049492178933 173.2362796623153 0.0 0.0 6.3611093629270335e-15 -23.365282648888847 -39.1593617535208 -49.725839046854176 -25.698907930420997 25.467485585877853 107.35078041200231 -97.38360624991213 -6.1203605110028665 -177.88145654658496 6.3611093629270335e-15 -1.7655625192200634e-31 -3.1805546814635168e-15
39.599998474121094 -4.800000190734863 6.800000190734863 -0.6510752737997128 -40.0589596167553 -179.82126955862879 -4.943333486883308 13.492628934553913 1.6255721583704401 8.564252423759702e-08 3.0533086032154073e-06 -2.229790875858285 121.97233283240335 -27.532226134944736 -158.40029308138477 4.607193380863255e-07 2.2055755139859295e-06 68.5308277407191 179.9999954793138 -84.34351620642022 -99.41736669813321 0.0 0.0 -1.3914926731402886e-15 -119.15516945232464 -33.81643335829593 152.54062558899676 1.5020069680725707e-06 -4.841477554874362e-06 -68.63530805257786 -3.3105689855841132e-06 -46.54734969039324 -83.8066845850573 -3.1805546814635168e-15 1.7655625192200634e-31 -6.3611093629270335e-15 23.4080329374758 -34.83426743164976 34.25387099540395 10.98357968500398 26.10151198723927 -77.0713410124298 101.911483583907 -24.635770405546207 173.72563875096242 2.648343778830095e-31 6.3611093629270335e-15 -4.770832022195275e-15 -23.090358047748957 -37.81759961659538 -46.435153635428286 -23.90875376480108 25.877307220624903 103.00833893393846 -96.95904542745784 -7.935744305899011 -177.19978796034013 0.0 0.0 3.1805546814635164e-15
39.39999771118164 -4.699999809265137 6.400000095367432 -1.8882071190449978 -38.721320216692554 -179.80748049740077 -5.387943958111138 13.938423505319173 1.5082256349741372 2.0288329809543965e-07 -9.402490323727662e-07 -2.9452535769109818 120.8855330689946 -27.2992115091065 -158.3933926748759 -5.909375808763821e-06 8.348103770355116e-06 67.34322158110635 179.999984700555 -80.56452570192224 -93.27199384661064 -7.724336021587778e-32 6.3611093629270335e-15 1.3914926731402886e-15 -119.46028458288696 -33.777123082104744 152.23234924238267 -2.3159110989384832e-06 -1.0575349760400446e-07 -67.47236693181894 -1.8992836738109707e-06 -45.02063380886802 -80.90961945643912 -3.1805546814635164e-15 3.1805546814635168e-15 -9.54166404439055e-15 20.864785891788014 -33.09613294516994 27.53174138741916 8.869891908926592 25.817053015409936 -71.79799546418155 101.60248554885167 -24.450957325259328 173.5019516342007 8.827812596100317e-32 6.3611093629270335e-15 -1.5902773407317584e-15 -24.00398993351465 -35.049273084204096 -39.72226830098646 -19.979488436825946 27.46327867249628 96.74793900645656 -97.66166356842005 -7.930904832774121 -177.13047310938066 -4.413906298050159e-31 6.3611093629270335e-15 7.951386703658792e-15
39.29999923706055 -4.699999809265137 6.099999904632568 -1.8676743037122556 -37.644050897508784 179.81771162189986 -5.318352529509284 14.114834602349651 1.7040995864238868 -4.265658225870398e-07 -1.672433635953446e-06 -2.4753906537834953 120.45055877038126 -28.85136861798572 -158.7453765610863 -3.2121787101531757e-06 3.5967813316429846e-06 66.30728079129221 179.99998227309186 -81.59866132267858 -88.93256147289581 0.0 0.0 -5.168401357378215e-15 -118.2030151327036 -33.294149805188916 152.43500290690397 1.0472432860281018e-06 1.222177393666628e-06 -65.07207034960997 3.331423874736098e-06 -43.33242691161452 -82.52316024041407 6.3611093629270335e-15 3.1805546814635164e-15 -4.770832022195275e-15 20.23496396123485 -31.252856757441627 20.988508493693523 5.824594685204418 25.540843293167235 -63.902822396194416 101.20696235819356 -24.94086004359263 172.73979002935468 0.0 0.0 0.0 -23.548792494028458 -33.503091284888924 -38.467278169776385 -19.168642993370746 26.90236728078031 98.09865099642393 -97.78015687827293 -5.787087497955589 -177.97149362711482 -6.361109362927033e-15 6.3611093629270335e-15 -9.54166404439055e-15
